<?xml version="1.0" encoding="UTF-8" standalone="no"?>
<svg
   xmlns:dc="http://purl.org/dc/elements/1.1/"
   xmlns:cc="http://creativecommons.org/ns#"
   xmlns:rdf="http://www.w3.org/1999/02/22-rdf-syntax-ns#"
   xmlns:svg="http://www.w3.org/2000/svg"
   xmlns="http://www.w3.org/2000/svg"
   viewBox="0 0 269.33927 36.844124"
   height="36.844124"
   width="269.33926"
   xml:space="preserve"
   version="1.1"
   id="svg2"><metadata
     id="metadata8"><rdf:RDF><cc:Work
         rdf:about=""><dc:format>image/svg+xml</dc:format><dc:type
           rdf:resource="http://purl.org/dc/dcmitype/StillImage" /><dc:title></dc:title></cc:Work></rdf:RDF></metadata><defs
     id="defs6"><clipPath
       id="clipPath16"
       clipPathUnits="userSpaceOnUse"><path
         id="path18"
         d="m 0,55.943 216.489,0 L 216.489,0 0,0 0,55.943 Z" /></clipPath><clipPath
       id="clipPath28"
       clipPathUnits="userSpaceOnUse"><path
         id="path30"
         d="m 0,0 216.489,0 0,55.943 L 0,55.943 0,0 Z" /></clipPath></defs><g
     transform="matrix(1.25,0,0,-1.25,-0.38,69.92875)"
     id="g10"><g
       style="fill:none;fill-opacity:1;stroke:#000000;stroke-opacity:1"
       id="g24"><g
         style="fill:none;fill-opacity:1;stroke:#000000;stroke-opacity:1"
         clip-path="url(#clipPath28)"
         id="g26"><g
           style="fill:none;fill-opacity:1;stroke:#000000;stroke-opacity:1"
           transform="translate(175.6118,26.8057)"
           id="g32"><path
             id="path34"
             style="fill:none;fill-opacity:1;fill-rule:nonzero;stroke:#000000;stroke-opacity:1"
             d="m 0,0 c -0.226,0.226 -0.338,0.548 -0.338,0.968 l 0,0.854 c 0,0.421 0.112,0.742 0.338,0.969 0.226,0.225 0.548,0.336 0.968,0.336 l 0.854,0 c 0.84,0 1.26,-0.436 1.26,-1.305 l 0,-0.854 c 0,-0.87 -0.42,-1.306 -1.26,-1.306 l -0.854,0 C 0.548,-0.338 0.226,-0.226 0,0" /></g><g
           style="fill:none;fill-opacity:1;stroke:#000000;stroke-opacity:1"
           transform="translate(202.6821,45.7734)"
           id="g36"><path
             id="path38"
             style="fill:none;fill-opacity:1;fill-rule:nonzero;stroke:#000000;stroke-opacity:1"
             d="m 0,0 c 1.289,-1.29 1.935,-3.345 1.935,-6.165 l 0,-11.97 c 0,-0.781 -0.391,-1.17 -1.17,-1.17 -0.781,0 -1.17,0.389 -1.17,1.17 l 0,2.205 c -0.72,-1.111 -1.734,-1.95 -3.037,-2.52 -1.306,-0.571 -2.873,-0.855 -4.704,-0.855 l -2.52,0 c -2.311,0 -4.012,0.54 -5.106,1.62 -1.096,1.08 -1.644,2.79 -1.644,5.13 0,2.34 0.548,4.056 1.644,5.152 1.094,1.095 2.795,1.643 5.106,1.643 l 10.261,0 c -0.062,1.981 -0.511,3.367 -1.351,4.162 -0.84,0.795 -2.309,1.194 -4.41,1.194 l -2.608,0 c -1.92,0 -3.317,-0.203 -4.187,-0.608 -0.87,-0.405 -1.41,-1.102 -1.619,-2.092 -0.12,-0.391 -0.271,-0.668 -0.45,-0.834 -0.181,-0.165 -0.436,-0.247 -0.766,-0.247 -0.421,0 -0.726,0.105 -0.923,0.315 -0.195,0.21 -0.277,0.51 -0.247,0.9 0.21,1.71 0.984,2.954 2.319,3.736 1.334,0.779 3.292,1.17 5.873,1.17 l 2.608,0 C -3.346,1.936 -1.291,1.29 0,0 m -0.405,-12.105 0,4.005 -10.261,0 c -1.68,0 -2.834,-0.323 -3.465,-0.968 -0.63,-0.645 -0.944,-1.807 -0.944,-3.487 0,-1.651 0.321,-2.798 0.968,-3.443 0.644,-0.645 1.792,-0.967 3.441,-0.967 l 2.52,0 c 4.65,0 7.202,1.5 7.65,4.5 l 0.091,0.36 z" /></g><g
           style="fill:none;fill-opacity:1;stroke:#000000;stroke-opacity:1"
           transform="translate(212.0864,52.209)"
           id="g40"><path
             id="path42"
             style="fill:none;fill-opacity:1;fill-rule:nonzero;stroke:#000000;stroke-opacity:1"
             d="m 0,0 c -0.271,0.27 -0.404,0.659 -0.404,1.17 l 0,0.99 c 0,0.51 0.133,0.9 0.404,1.17 0.271,0.27 0.659,0.404 1.17,0.404 l 1.035,0 c 0.989,0 1.484,-0.524 1.484,-1.574 l 0,-0.99 c 0,-1.051 -0.495,-1.575 -1.484,-1.575 l -1.035,0 C 0.659,-0.405 0.271,-0.271 0,0 m 0.811,-25.448 c -0.21,0.195 -0.317,0.487 -0.317,0.877 l 0,18.901 c 0,0.39 0.107,0.682 0.317,0.877 0.21,0.195 0.495,0.293 0.853,0.293 0.78,0 1.17,-0.391 1.17,-1.17 l 0,-18.901 c 0,-0.78 -0.39,-1.17 -1.17,-1.17 -0.358,0 -0.643,0.097 -0.853,0.293" /></g><g
           style="fill:none;fill-opacity:1;stroke:#000000;stroke-opacity:1"
           transform="translate(25.459,28.4033)"
           id="g44"><path
             id="path46"
             style="fill:none;fill-opacity:1;fill-rule:nonzero;stroke:#000000;stroke-opacity:1"
             d="m 0,0 -11.16,26.415 c -0.27,0.599 -0.705,0.899 -1.305,0.899 l -0.09,0 c -0.66,0 -1.11,-0.3 -1.35,-0.899 L -25.065,0 c -0.061,-0.121 -0.09,-0.301 -0.09,-0.539 0,-0.482 0.24,-0.812 0.72,-0.99 0.239,-0.091 0.435,-0.136 0.585,-0.136 0.45,0 0.78,0.238 0.99,0.72 l 0.527,1.244 9.823,23.326 9.874,-23.326 -0.006,0 0.527,-1.244 c 0.18,-0.482 0.479,-0.72 0.9,-0.72 0.21,0 0.405,0.045 0.585,0.136 0.51,0.239 0.765,0.553 0.765,0.944 C 0.135,-0.405 0.09,-0.21 0,0" /></g><g
           style="fill:none;fill-opacity:1;stroke:#000000;stroke-opacity:1"
           transform="translate(51.1533,27.5928)"
           id="g48"><path
             id="path50"
             style="fill:none;fill-opacity:1;fill-rule:nonzero;stroke:#000000;stroke-opacity:1"
             d="m 0,0 c 0,-0.359 -0.21,-0.659 -0.63,-0.9 -0.24,-0.15 -0.466,-0.224 -0.675,-0.224 -0.39,0 -0.69,0.194 -0.9,0.584 l -7.425,11.746 -8.28,0 0,-10.892 c 0,-0.779 -0.39,-1.168 -1.17,-1.168 -0.78,0 -1.17,0.389 -1.17,1.168 l 0,26.642 c 0,0.78 0.39,1.169 1.17,1.169 l 10.53,0 c 2.55,0 4.484,-0.659 5.805,-1.98 1.32,-1.319 1.98,-3.254 1.98,-5.804 l 0,-1.351 c 0,-2.28 -0.517,-4.064 -1.553,-5.355 -1.034,-1.29 -2.558,-2.07 -4.567,-2.34 l 6.66,-10.62 C -0.075,0.435 0,0.21 0,0 m -17.91,13.545 9.36,0 c 1.92,0 3.308,0.428 4.163,1.283 0.855,0.856 1.282,2.242 1.282,4.162 l 0,1.351 c 0,1.889 -0.427,3.269 -1.282,4.139 -0.855,0.87 -2.243,1.305 -4.163,1.305 l -9.36,0 0,-12.24 z" /></g><g
           style="fill:none;fill-opacity:1;stroke:#000000;stroke-opacity:1"
           transform="translate(59.208,28.9878)"
           id="g52"><path
             id="path54"
             style="fill:none;fill-opacity:1;fill-rule:nonzero;stroke:#000000;stroke-opacity:1"
             d="m 0,0 c -1.501,1.5 -2.25,3.871 -2.25,7.111 l 0,10.26 c 0,3.269 0.742,5.647 2.227,7.132 1.485,1.485 3.848,2.227 7.088,2.227 l 5.445,0 c 2.76,0 4.815,-0.578 6.165,-1.732 1.35,-1.155 2.099,-3.008 2.25,-5.558 0.059,-0.78 -0.33,-1.17 -1.17,-1.17 -0.72,0 -1.111,0.39 -1.17,1.17 -0.121,1.829 -0.63,3.112 -1.53,3.847 -0.9,0.735 -2.416,1.103 -4.545,1.103 l -5.445,0 C 5.325,24.39 3.952,24.165 2.947,23.716 1.941,23.265 1.215,22.538 0.765,21.533 0.315,20.527 0.09,19.139 0.09,17.371 l 0,-10.26 C 0.09,5.339 0.315,3.953 0.765,2.948 1.215,1.942 1.941,1.216 2.947,0.765 3.952,0.315 5.339,0.09 7.11,0.09 l 5.4,0 c 1.559,0 2.782,0.187 3.667,0.563 0.885,0.375 1.515,1.005 1.89,1.89 0.375,0.885 0.563,2.107 0.563,3.667 l 0,2.835 -4.95,0.046 c -0.781,0 -1.17,0.389 -1.17,1.169 0,0.78 0.389,1.171 1.17,1.171 l 6.12,-0.046 c 0.78,0 1.17,-0.39 1.17,-1.17 l 0,-4.005 C 20.97,3.24 20.302,1.088 18.967,-0.248 17.632,-1.583 15.48,-2.25 12.51,-2.25 l -5.4,0 C 3.87,-2.25 1.5,-1.5 0,0" /></g><g
           style="fill:none;fill-opacity:1;stroke:#000000;stroke-opacity:1"
           transform="translate(114.3774,54.5483)"
           id="g56"><path
             id="path58"
             style="fill:none;fill-opacity:1;fill-rule:nonzero;stroke:#000000;stroke-opacity:1"
             d="m 0,0 0,-26.641 c 0,-0.78 -0.391,-1.169 -1.171,-1.169 -0.779,0 -1.17,0.389 -1.17,1.169 l 0,22.951 -9.719,-14.76 c -0.301,-0.51 -0.765,-0.765 -1.394,-0.765 -0.541,0 -0.977,0.255 -1.307,0.765 l -9.764,14.895 0,-23.086 c 0,-0.78 -0.391,-1.169 -1.17,-1.169 -0.781,0 -1.17,0.389 -1.17,1.169 l 0,26.641 c 0,0.78 0.389,1.169 1.17,1.169 0.599,0 1.05,-0.255 1.349,-0.764 L -13.365,-16.381 -2.43,0.405 c 0.299,0.509 0.765,0.764 1.396,0.764 C -0.345,1.169 0,0.78 0,0" /></g><g
           style="fill:none;fill-opacity:1;stroke:#000000;stroke-opacity:1"
           transform="translate(145.0249,27.8184)"
           id="g60"><path
             id="path62"
             style="fill:none;fill-opacity:1;fill-rule:nonzero;stroke:#000000;stroke-opacity:1"
             d="m 0,0 c 0,-0.391 -0.256,-0.706 -0.766,-0.945 -0.179,-0.09 -0.375,-0.135 -0.585,-0.135 -0.42,0 -0.719,0.239 -0.9,0.72 l -3.016,7.109 -0.133,0 -14.58,0 -3.016,-7.109 c -0.209,-0.481 -0.539,-0.72 -0.99,-0.72 -0.15,0 -0.345,0.045 -0.584,0.135 -0.481,0.18 -0.72,0.509 -0.72,0.99 0,0.239 0.029,0.419 0.09,0.54 L -14.04,27 c 0.239,0.599 0.688,0.899 1.35,0.899 l 0.089,0 c 0.6,0 1.036,-0.3 1.305,-0.899 L -0.135,0.585 C -0.046,0.375 0,0.179 0,0 m -19.036,9.089 12.781,0 -6.391,15.121 -6.39,-15.121 z" /></g><g
           style="fill:none;fill-opacity:1;stroke:#000000;stroke-opacity:1"
           transform="translate(147.9937,27.9521)"
           id="g64"><path
             id="path66"
             style="fill:none;fill-opacity:1;fill-rule:nonzero;stroke:#000000;stroke-opacity:1"
             d="m 0,0 c 0,0.211 0.076,0.436 0.225,0.675 l 9.09,13.23 -8.55,11.97 c -0.179,0.242 -0.269,0.48 -0.269,0.722 0,0.328 0.18,0.629 0.539,0.899 0.21,0.15 0.45,0.226 0.72,0.226 0.361,0 0.676,-0.181 0.945,-0.541 l 8.145,-11.43 8.461,11.475 c 0.269,0.359 0.554,0.54 0.855,0.54 0.18,0 0.435,-0.105 0.764,-0.315 0.36,-0.27 0.54,-0.571 0.54,-0.901 0,-0.21 -0.089,-0.449 -0.27,-0.719 L 12.33,13.727 21.646,0.675 c 0.18,-0.209 0.269,-0.448 0.269,-0.72 0,-0.33 -0.18,-0.63 -0.539,-0.899 -0.271,-0.179 -0.512,-0.271 -0.72,-0.271 -0.361,0 -0.661,0.181 -0.9,0.54 l -9,12.555 L 2.161,-0.63 C 1.92,-1.019 1.621,-1.215 1.26,-1.215 1.05,-1.215 0.811,-1.123 0.541,-0.944 0.181,-0.675 0,-0.359 0,0" /></g></g></g></g></svg>